<svg width="109" height="220" viewBox="0 0 109 220" fill="none" xmlns="http://www.w3.org/2000/svg">
<path d="M-51.4902 206.84V47.7216L-30.0468 35.6291L-0.370509 31.7944L6.01946 157.115L-0.370509 193.823L-25.9304 206.642L-51.4902 206.84Z" fill="#F39321"/>
<path d="M-0.370605 193.823V42.2194L25.1893 45.1298L50.7491 58.1465C50.7491 60.1357 50.7491 204.852 50.7491 206.84L25.1893 206.642L-0.370605 193.823Z" fill="#F3A141"/>
<path fill-rule="evenodd" clip-rule="evenodd" d="M-13.371 197.134C-27.2641 200.671 -47.2051 205.749 -51.4902 206.84L-0.370716 219.659H-0.370506L50.749 206.84L37.8714 203.561C23.9736 200.022 3.92784 194.918 -0.370476 193.823L-0.370506 193.823C-0.370541 193.823 -0.370579 193.823 -0.370613 193.823C-0.370647 193.823 -0.370682 193.823 -0.370716 193.823V193.823C-2.27649 194.309 -7.23362 195.571 -13.371 197.134Z" fill="#F8C67C"/>
<path d="M-51.4902 35.3865V-45.9998C-45.1467 -44.4089 -6.62288 -34.7483 -0.370506 -33.1805L6.01946 7.12548L-0.370506 47.4315C-7.91578 47.0631 -23.8021 46.2871 -28.2734 46.0688C-31.093 44.7719 -48.6603 36.6885 -51.4902 35.3865V35.3865Z" fill="#6BCD49"/>
<path d="M50.7491 35.3865L57.1391 -5.30625L50.7491 -45.9994C44.5653 -44.4487 5.85407 -34.741 -0.370605 -33.1801C-0.370605 -28.704 -0.370605 42.9562 -0.370605 47.4319L25.1892 46.4965L50.7491 35.3865Z" fill="#5EBA3F"/>
<path d="M108.259 48.9373V-31.5781C87.6728 -36.7404 70.6525 -41.0084 50.749 -45.9998C50.749 -41.4759 50.749 30.863 50.749 35.3865L79.5039 47.4319L108.259 48.9373Z" fill="#6BCD49"/>
<path fill-rule="evenodd" clip-rule="evenodd" d="M50.7493 63.3589L108.259 48.9373C101.265 47.2892 57.7582 37.0378 50.7491 35.3865L50.7491 35.3865L50.749 35.3865C50.749 35.3865 50.749 35.3865 50.7489 35.3865V35.3865L25.1892 41.409L-0.370605 47.4315C1.84456 48.1217 3.9642 48.7821 5.99243 49.414C13.6534 51.801 20.0102 53.7816 25.2838 55.4243C48.2114 62.5682 50.6589 63.3307 50.7489 63.3588V63.3588C50.7249 63.3514 50.5544 63.2983 50.7489 63.359V63.359L50.749 63.359C50.7491 63.359 50.7491 63.359 50.7491 63.359L50.7492 63.3589C50.7508 63.3594 50.7516 63.3597 50.7516 63.3597C50.7516 63.3597 50.7509 63.3594 50.7493 63.3589Z" fill="#C9F87C"/>
</svg>
