<svg width="198" height="32" viewBox="0 0 198 32" fill="none" xmlns="http://www.w3.org/2000/svg">
<path d="M42.3006 24.1647C42.1185 24.1647 41.9546 24.101 41.8089 23.9735C41.6814 23.846 41.6177 23.6821 41.6177 23.4818V10.6431C41.6177 10.4428 41.6814 10.2789 41.8089 10.1514C41.9546 10.0239 42.1185 9.96017 42.3006 9.96017H44.841C45.0413 9.96017 45.2052 10.0239 45.3327 10.1514C45.4602 10.2789 45.5239 10.4428 45.5239 10.6431V11.5718C45.9064 11.0619 46.4163 10.6249 47.0536 10.2607C47.7092 9.89644 48.4832 9.70522 49.3755 9.68701C51.4698 9.65059 52.9176 10.4519 53.7188 12.0909C54.1377 11.3806 54.7387 10.807 55.5217 10.3699C56.3048 9.91465 57.1698 9.68701 58.1168 9.68701C59.0638 9.68701 59.9197 9.90554 60.6845 10.3426C61.4494 10.7615 62.0595 11.4171 62.5147 12.3094C62.97 13.1835 63.1977 14.3126 63.1977 15.6966V23.4818C63.1977 23.6821 63.1248 23.846 62.9791 23.9735C62.8516 24.101 62.6968 24.1647 62.5147 24.1647H59.8104C59.6101 24.1647 59.4462 24.101 59.3187 23.9735C59.1912 23.846 59.1275 23.6821 59.1275 23.4818V15.9152C59.1275 15.1685 59.0182 14.5858 58.7997 14.1669C58.5994 13.7481 58.3171 13.4476 57.9529 13.2655C57.6069 13.0651 57.2154 12.965 56.7783 12.965C56.3959 12.965 56.0225 13.0651 55.6583 13.2655C55.3123 13.4476 55.0209 13.7481 54.7842 14.1669C54.5657 14.5858 54.4564 15.1685 54.4564 15.9152V23.4818C54.4564 23.6821 54.3927 23.846 54.2652 23.9735C54.1377 24.101 53.9829 24.1647 53.8008 24.1647H51.0965C50.8962 24.1647 50.7323 24.101 50.6048 23.9735C50.4773 23.846 50.4136 23.6821 50.4136 23.4818V15.9152C50.4136 15.1685 50.3043 14.5858 50.0858 14.1669C49.8672 13.7481 49.5759 13.4476 49.2116 13.2655C48.8656 13.0651 48.4832 12.965 48.0644 12.965C47.6819 12.965 47.3086 13.0651 46.9444 13.2655C46.5984 13.4476 46.307 13.7481 46.0703 14.1669C45.8517 14.5858 45.7425 15.1594 45.7425 15.8878V23.4818C45.7425 23.6821 45.6787 23.846 45.5512 23.9735C45.4238 24.101 45.2599 24.1647 45.0595 24.1647H42.3006Z" fill="#253D32"/>
<path d="M71.2063 24.4379C70.2411 24.4379 69.3761 24.2558 68.6112 23.8916C67.8463 23.5091 67.2363 22.9992 66.781 22.3618C66.3257 21.7244 66.0981 21.0142 66.0981 20.2312C66.0981 18.9382 66.6171 17.9184 67.6551 17.1717C68.7114 16.4251 70.0954 15.9152 71.8072 15.642L75.3857 15.123V14.6313C75.3857 13.9211 75.2218 13.3747 74.894 12.9923C74.5662 12.6099 73.9925 12.4187 73.1731 12.4187C72.5721 12.4187 72.0895 12.537 71.7253 12.7738C71.3793 13.0105 71.1061 13.3201 70.9058 13.7025C70.7601 13.9393 70.5416 14.0576 70.2502 14.0576H67.6551C67.4548 14.0576 67.3 14.003 67.1908 13.8937C67.0815 13.7663 67.036 13.6206 67.0542 13.4567C67.0542 13.1471 67.1725 12.7829 67.4093 12.364C67.646 11.9452 68.0102 11.5354 68.5019 11.1348C68.9936 10.7159 69.6219 10.3699 70.3868 10.0968C71.1698 9.82359 72.1077 9.68701 73.2004 9.68701C74.3477 9.68701 75.331 9.82359 76.1505 10.0968C76.97 10.3699 77.6256 10.7524 78.1173 11.244C78.6272 11.7357 78.9914 12.3094 79.21 12.965C79.4467 13.6024 79.5651 14.2944 79.5651 15.041V23.4818C79.5651 23.6821 79.5014 23.846 79.3739 23.9735C79.2464 24.101 79.0916 24.1647 78.9095 24.1647H76.2052C76.0231 24.1647 75.8683 24.101 75.7408 23.9735C75.6133 23.846 75.5496 23.6821 75.5496 23.4818V22.4711C75.3128 22.8171 74.9941 23.1449 74.5935 23.4545C74.1929 23.7459 73.7103 23.9826 73.1457 24.1647C72.5994 24.3468 71.9529 24.4379 71.2063 24.4379ZM72.2989 21.597C72.8999 21.597 73.4371 21.4695 73.9106 21.2145C74.3841 20.9596 74.7574 20.5681 75.0306 20.0399C75.3037 19.5118 75.4403 18.8471 75.4403 18.0458V17.5815L72.8999 17.9912C71.9347 18.1551 71.2245 18.401 70.7692 18.7287C70.3139 19.0565 70.0863 19.4572 70.0863 19.9307C70.0863 20.2767 70.1865 20.5772 70.3868 20.8321C70.6053 21.0689 70.8785 21.2601 71.2063 21.4058C71.5523 21.5332 71.9165 21.597 72.2989 21.597Z" fill="#253D32"/>
<path d="M84.0744 24.1647C83.8923 24.1647 83.7284 24.101 83.5827 23.9735C83.4553 23.846 83.3915 23.6821 83.3915 23.4818V10.6431C83.3915 10.461 83.4553 10.3062 83.5827 10.1787C83.7284 10.033 83.8923 9.96017 84.0744 9.96017H86.7514C86.9518 9.96017 87.1157 10.033 87.2431 10.1787C87.3706 10.3062 87.4344 10.461 87.4344 10.6431V11.7357C87.8896 11.1712 88.4542 10.7341 89.128 10.4246C89.8018 10.115 90.5666 9.96017 91.4226 9.96017H92.5972C92.7975 9.96017 92.9614 10.0239 93.0889 10.1514C93.2163 10.2789 93.2801 10.4428 93.2801 10.6431V13.0196C93.2801 13.2017 93.2163 13.3565 93.0889 13.484C92.9614 13.6115 92.7975 13.6752 92.5972 13.6752H90.2206C89.4011 13.6752 88.7638 13.9028 88.3085 14.3581C87.8714 14.8134 87.6529 15.4417 87.6529 16.243V23.4818C87.6529 23.6821 87.58 23.846 87.4344 23.9735C87.3069 24.101 87.1521 24.1647 86.97 24.1647H84.0744Z" fill="#253D32"/>
<path d="M96.5457 24.1647C96.3453 24.1647 96.1814 24.101 96.054 23.9735C95.9265 23.846 95.8628 23.6821 95.8628 23.4818V5.45297C95.8628 5.25265 95.9265 5.08875 96.054 4.96127C96.1814 4.83379 96.3453 4.77006 96.5457 4.77006H99.2227C99.4048 4.77006 99.5596 4.83379 99.6871 4.96127C99.8327 5.08875 99.9056 5.25265 99.9056 5.45297V14.6859L104.085 10.4246C104.231 10.2971 104.358 10.1878 104.467 10.0968C104.595 10.0057 104.786 9.96017 105.041 9.96017H108.155C108.319 9.96017 108.456 10.0239 108.565 10.1514C108.692 10.2607 108.756 10.3972 108.756 10.5611C108.756 10.634 108.738 10.7159 108.701 10.807C108.665 10.898 108.601 10.9709 108.51 11.0255L103.238 16.3249L109.193 23.1267C109.339 23.2724 109.412 23.4181 109.412 23.5638C109.412 23.7277 109.357 23.8733 109.248 24.0008C109.139 24.1101 108.993 24.1647 108.811 24.1647H105.642C105.369 24.1647 105.169 24.1192 105.041 24.0281C104.932 23.9371 104.804 23.8278 104.659 23.7003L99.9056 18.3463V23.4818C99.9056 23.6821 99.8327 23.846 99.6871 23.9735C99.5596 24.101 99.4048 24.1647 99.2227 24.1647H96.5457Z" fill="#253D32"/>
<path d="M117.605 24.4379C115.511 24.4379 113.845 23.8551 112.606 22.6896C111.386 21.5241 110.74 19.8305 110.667 17.6088C110.667 17.4631 110.667 17.2719 110.667 17.0351C110.667 16.7802 110.667 16.589 110.667 16.4615C110.74 15.041 111.058 13.83 111.623 12.8284C112.187 11.8086 112.98 11.0346 113.999 10.5065C115.019 9.96018 116.212 9.68701 117.578 9.68701C119.126 9.68701 120.41 10.0057 121.429 10.6431C122.449 11.2623 123.214 12.1182 123.724 13.2108C124.252 14.2853 124.516 15.5236 124.516 16.9259V17.5541C124.516 17.7363 124.452 17.9002 124.325 18.0458C124.197 18.1733 124.034 18.2371 123.833 18.2371H114.928C114.928 18.2371 114.928 18.2644 114.928 18.319C114.928 18.3554 114.928 18.3918 114.928 18.4283C114.946 19.011 115.056 19.5482 115.256 20.0399C115.456 20.5134 115.748 20.8959 116.13 21.1872C116.531 21.4786 117.013 21.6243 117.578 21.6243C118.015 21.6243 118.379 21.5606 118.67 21.4331C118.962 21.2874 119.199 21.1326 119.381 20.9687C119.581 20.7866 119.727 20.6318 119.818 20.5043C119.982 20.304 120.109 20.1856 120.2 20.1492C120.309 20.0946 120.464 20.0673 120.665 20.0673H123.56C123.724 20.0673 123.861 20.1219 123.97 20.2312C124.097 20.3404 124.152 20.477 124.134 20.6409C124.116 20.9505 123.961 21.3238 123.669 21.7609C123.396 22.1797 122.986 22.5986 122.44 23.0174C121.894 23.4181 121.211 23.755 120.391 24.0281C119.59 24.3013 118.661 24.4379 117.605 24.4379ZM114.928 15.7239H120.255V15.642C120.255 15.0046 120.146 14.4492 119.927 13.9757C119.727 13.484 119.426 13.1016 119.026 12.8284C118.625 12.5552 118.142 12.4187 117.578 12.4187C117.013 12.4187 116.531 12.5552 116.13 12.8284C115.748 13.1016 115.447 13.484 115.229 13.9757C115.028 14.4492 114.928 15.0046 114.928 15.642V15.7239Z" fill="#253D32"/>
<path d="M134.596 24.1647C133.466 24.1647 132.501 23.9826 131.7 23.6184C130.917 23.236 130.316 22.6532 129.897 21.8701C129.478 21.0871 129.269 20.1037 129.269 18.92V13.1835H127.138C126.938 13.1835 126.774 13.1198 126.646 12.9923C126.519 12.8648 126.455 12.71 126.455 12.5279V10.6431C126.455 10.4428 126.519 10.2789 126.646 10.1514C126.774 10.0239 126.938 9.96017 127.138 9.96017H129.269V5.45297C129.269 5.25265 129.333 5.08875 129.46 4.96127C129.606 4.83379 129.77 4.77006 129.952 4.77006H132.656C132.838 4.77006 132.993 4.83379 133.12 4.96127C133.248 5.08875 133.312 5.25265 133.312 5.45297V9.96017H136.726C136.927 9.96017 137.09 10.0239 137.218 10.1514C137.345 10.2789 137.409 10.4428 137.409 10.6431V12.5279C137.409 12.71 137.345 12.8648 137.218 12.9923C137.09 13.1198 136.927 13.1835 136.726 13.1835H133.312V18.5922C133.312 19.2842 133.439 19.8305 133.694 20.2312C133.949 20.6136 134.377 20.8048 134.978 20.8048H136.972C137.172 20.8048 137.336 20.8685 137.464 20.996C137.591 21.1235 137.655 21.2783 137.655 21.4604V23.4818C137.655 23.6821 137.591 23.846 137.464 23.9735C137.336 24.101 137.172 24.1647 136.972 24.1647H134.596Z" fill="#253D32"/>
<path d="M141.24 24.1647C141.04 24.1647 140.876 24.101 140.748 23.9735C140.621 23.846 140.557 23.6821 140.557 23.4818V5.45297C140.557 5.25265 140.621 5.08875 140.748 4.96127C140.876 4.83379 141.04 4.77006 141.24 4.77006H144.19C144.391 4.77006 144.554 4.83379 144.682 4.96127C144.809 5.08875 144.873 5.25265 144.873 5.45297V11.5992C145.347 11.0164 145.938 10.552 146.649 10.206C147.377 9.86002 148.242 9.68701 149.244 9.68701C150.318 9.68701 151.265 9.93286 152.085 10.4246C152.922 10.898 153.569 11.5992 154.024 12.5279C154.498 13.4385 154.734 14.5493 154.734 15.8605V23.4818C154.734 23.6821 154.671 23.846 154.543 23.9735C154.416 24.101 154.252 24.1647 154.051 24.1647H151.074C150.892 24.1647 150.737 24.101 150.61 23.9735C150.482 23.846 150.418 23.6821 150.418 23.4818V16.0244C150.418 15.0592 150.182 14.3126 149.708 13.7845C149.235 13.2381 148.561 12.965 147.687 12.965C146.831 12.965 146.148 13.2381 145.638 13.7845C145.128 14.3126 144.873 15.0592 144.873 16.0244V23.4818C144.873 23.6821 144.809 23.846 144.682 23.9735C144.554 24.101 144.391 24.1647 144.19 24.1647H141.24Z" fill="#253D32"/>
<path d="M159.205 24.1647C159.023 24.1647 158.859 24.101 158.714 23.9735C158.586 23.846 158.522 23.6821 158.522 23.4818V10.6431C158.522 10.4428 158.586 10.2789 158.714 10.1514C158.859 10.0239 159.023 9.96017 159.205 9.96017H161.964C162.146 9.96017 162.301 10.0239 162.429 10.1514C162.556 10.2789 162.62 10.4428 162.62 10.6431V23.4818C162.62 23.6821 162.556 23.846 162.429 23.9735C162.301 24.101 162.146 24.1647 161.964 24.1647H159.205ZM159.123 7.77486C158.941 7.77486 158.786 7.71112 158.659 7.58365C158.531 7.45617 158.468 7.29227 158.468 7.09195V4.87932C158.468 4.69721 158.531 4.54242 158.659 4.41494C158.786 4.26925 158.941 4.19641 159.123 4.19641H162.019C162.201 4.19641 162.356 4.26925 162.483 4.41494C162.629 4.54242 162.702 4.69721 162.702 4.87932V7.09195C162.702 7.29227 162.629 7.45617 162.483 7.58365C162.356 7.71112 162.201 7.77486 162.019 7.77486H159.123Z" fill="#253D32"/>
<path d="M167.274 24.1647C167.092 24.1647 166.928 24.101 166.783 23.9735C166.655 23.846 166.591 23.6821 166.591 23.4818V10.6431C166.591 10.4428 166.655 10.2789 166.783 10.1514C166.928 10.0239 167.092 9.96017 167.274 9.96017H169.951C170.152 9.96017 170.316 10.0239 170.443 10.1514C170.57 10.2789 170.634 10.4428 170.634 10.6431V11.7084C171.108 11.1257 171.718 10.6431 172.464 10.2607C173.229 9.87823 174.14 9.68701 175.196 9.68701C176.27 9.68701 177.217 9.93286 178.037 10.4246C178.856 10.898 179.494 11.5992 179.949 12.5279C180.404 13.4385 180.632 14.5493 180.632 15.8605V23.4818C180.632 23.6821 180.568 23.846 180.441 23.9735C180.313 24.101 180.149 24.1647 179.949 24.1647H177.054C176.853 24.1647 176.689 24.101 176.562 23.9735C176.434 23.846 176.371 23.6821 176.371 23.4818V16.0244C176.371 15.0592 176.134 14.3126 175.66 13.7845C175.205 13.2381 174.531 12.965 173.639 12.965C172.783 12.965 172.1 13.2381 171.59 13.7845C171.099 14.3126 170.853 15.0592 170.853 16.0244V23.4818C170.853 23.6821 170.789 23.846 170.662 23.9735C170.534 24.101 170.37 24.1647 170.17 24.1647H167.274Z" fill="#253D32"/>
<path d="M185.134 24.1647C184.934 24.1647 184.77 24.101 184.642 23.9735C184.515 23.846 184.451 23.6821 184.451 23.4818V5.45297C184.451 5.25265 184.515 5.08875 184.642 4.96127C184.77 4.83379 184.934 4.77006 185.134 4.77006H187.811C187.993 4.77006 188.148 4.83379 188.275 4.96127C188.421 5.08875 188.494 5.25265 188.494 5.45297V14.6859L192.673 10.4246C192.819 10.2971 192.947 10.1878 193.056 10.0968C193.183 10.0057 193.375 9.96017 193.629 9.96017H196.744C196.907 9.96017 197.044 10.0239 197.153 10.1514C197.281 10.2607 197.345 10.3972 197.345 10.5611C197.345 10.634 197.326 10.7159 197.29 10.807C197.253 10.898 197.19 10.9709 197.099 11.0255L191.827 16.3249L197.782 23.1267C197.927 23.2724 198 23.4181 198 23.5638C198 23.7277 197.945 23.8733 197.836 24.0008C197.727 24.1101 197.581 24.1647 197.399 24.1647H194.23C193.957 24.1647 193.757 24.1192 193.629 24.0281C193.52 23.9371 193.393 23.8278 193.247 23.7003L188.494 18.3463V23.4818C188.494 23.6821 188.421 23.846 188.275 23.9735C188.148 24.101 187.993 24.1647 187.811 24.1647H185.134Z" fill="#253D32"/>
<path d="M22.3257 28.8924C25.9523 28.8924 28.8922 25.9525 28.8922 22.3259C28.8922 18.6994 25.9523 15.7595 22.3257 15.7595C18.6992 15.7595 15.7593 18.6994 15.7593 22.3259C15.7593 25.9525 18.6992 28.8924 22.3257 28.8924Z" fill="#EDFF81"/>
<path d="M24.2957 11.8196C26.8343 11.8196 28.8922 9.76168 28.8922 7.2231C28.8922 4.68452 26.8343 2.62659 24.2957 2.62659C21.7571 2.62659 19.6992 4.68452 19.6992 7.2231C19.6992 9.76168 21.7571 11.8196 24.2957 11.8196Z" fill="#253D32"/>
<path d="M7.26253 28.853C9.80111 28.853 11.859 26.795 11.859 24.2565C11.859 21.7179 9.80111 19.6599 7.26253 19.6599C4.72394 19.6599 2.66602 21.7179 2.66602 24.2565C2.66602 26.795 4.72394 28.853 7.26253 28.853Z" fill="#253D32"/>
<path d="M9.19291 15.7595C12.8195 15.7595 15.7594 12.8196 15.7594 9.19303C15.7594 5.56648 12.8195 2.62659 9.19291 2.62659C5.56636 2.62659 2.62646 5.56648 2.62646 9.19303C2.62646 12.8196 5.56636 15.7595 9.19291 15.7595Z" fill="#EDFF81"/>
</svg>
