<svg width="50" height="50" viewBox="0 0 50 50" fill="none" xmlns="http://www.w3.org/2000/svg">
<g clip-path="url(#clip0_10456_134)">
<path d="M11.8164 25C11.8164 15.1597 18.357 6.53311 27.6252 3.83809L29.3908 0.397852C27.9415 0.141602 26.4674 0 25 0C11.2686 0 0 11.2686 0 25C0 38.7314 11.2686 50 25 50C26.4689 50 27.9449 49.8584 29.396 49.6015L29.0827 46.4504C19.0464 44.2667 11.8164 35.3508 11.8164 25Z" fill="#7CAEF8"/>
<path fill-rule="evenodd" clip-rule="evenodd" d="M30.6794 3.15454L37.3048 3.37896C45.0684 7.74419 50.0001 15.9181 50.0001 25C50.0001 26.4634 49.8486 27.9471 49.5909 29.3896L49.5893 29.3887L49.5899 29.3946L49.5605 29.6583C49.209 31.5332 48.5256 33.4082 47.7052 35.2245C47.7052 35.2246 47.7053 35.2246 47.7053 35.2247C47.6616 35.3265 47.6107 35.4357 47.5597 35.5449C47.5082 35.6555 47.4566 35.7661 47.4124 35.8693V35.8984C47.3977 35.9424 47.3757 35.9791 47.3537 36.0158C47.3317 36.0524 47.3098 36.089 47.2951 36.1329C46.9143 36.8946 46.4749 37.627 46.0354 38.3594C45.7718 38.7696 45.4787 39.1797 45.1565 39.5898H45.1564C44.9513 39.9122 44.7168 40.2344 44.4533 40.5567C44.0724 41.0253 43.6915 41.4649 43.252 41.9044C41.5529 43.7793 39.5314 45.3615 37.3341 46.6212H30.2736C25.0588 43.6329 21.0159 38.7991 19.0822 33.1154H19.082H19.0235L18.7687 32.2331C18.7241 32.0896 18.6826 31.9461 18.6443 31.8026L18.6427 31.797C18.5861 31.6046 18.5339 31.4122 18.4843 31.2198L18.2327 30.3029H18.2618C17.881 28.5452 17.6759 26.7873 17.6759 25.0001V24.6779L17.6759 24.6779L17.6172 24.7072L17.7028 23.8237C17.7035 23.8165 17.7042 23.8094 17.7049 23.8022L17.7052 23.799C17.7148 23.6644 17.7212 23.533 17.7277 23.4026C17.7408 23.1357 17.7537 22.8733 17.793 22.5977C17.8056 22.446 17.8237 22.2997 17.8449 22.1566L17.9103 21.6017L17.9396 21.6017C18.3992 18.1077 19.5804 14.7941 21.4405 11.8165H21.2794L22.3588 10.4503C22.6047 10.1095 22.8602 9.77379 23.125 9.44341L23.5646 8.88677H23.6065C25.5497 6.57131 27.9654 4.64424 30.6794 3.15454Z" fill="#5374E9"/>
<path d="M34.3164 45.3907C28.0762 42.8419 23.2714 37.4512 21.4551 30.9766C21.338 30.5665 21.2208 30.1271 21.1328 29.7168C20.7813 28.1642 20.6055 26.582 20.6055 25C20.6055 24.2969 20.6348 23.6231 20.7226 22.9198C21.1034 18.8769 22.5683 15.0683 25 11.8164L25.4396 11.2598C27.7246 8.38877 30.8007 6.07412 34.3164 4.60928L37.3047 3.37891C36.4843 2.88096 35.6054 2.44141 34.6973 2.06055C34.6973 2.06055 34.0819 1.82627 33.9941 1.79697C32.5293 1.21104 31.1231 0.703125 29.6583 0.439551L29.3945 0.380859L29.1308 0.439551C17.3829 2.66592 8.88672 13.0468 8.88672 25C8.88672 36.9532 17.3829 47.3341 29.1308 49.5605L29.3945 49.6191L29.6583 49.5605C31.1231 49.2969 32.5293 48.7891 33.9941 48.203C34.0819 48.1737 34.1992 48.1152 34.287 48.0859L34.7852 47.8809C35.6641 47.5293 36.5136 47.0898 37.334 46.6211L34.3164 45.3907Z" fill="#6C8DFF"/>
</g>
<defs>
<clipPath id="clip0_10456_134">
<rect width="50" height="50" fill="white"/>
</clipPath>
</defs>
</svg>
