<svg width="123" height="32" viewBox="0 0 123 32" fill="none" xmlns="http://www.w3.org/2000/svg">
<g clip-path="url(#clip0_10456_363)">
<path fill-rule="evenodd" clip-rule="evenodd" d="M39.3501 24.5064L40.8851 20.9394C42.5432 22.1792 44.7523 22.8237 46.9318 22.8237C48.5407 22.8237 49.5591 22.2038 49.5591 21.2641C49.5345 18.6368 39.9208 20.6934 39.847 14.1055C39.8224 10.7599 42.7941 8.18181 47.0056 8.18181C49.5099 8.18181 52.0093 8.80173 53.7952 10.2138L52.3586 13.8546C50.7251 12.8115 48.6932 12.0686 46.7596 12.0686C45.446 12.0686 44.5801 12.6885 44.5801 13.4806C44.6047 16.0587 54.2921 14.6467 54.3905 20.9394C54.3905 24.3588 51.4927 26.7646 47.3303 26.7646C44.2799 26.7597 41.4805 26.0414 39.3501 24.5064V24.5064ZM98.2966 19.6503C97.5291 20.9886 96.0925 21.9037 94.4295 21.9037C91.9744 21.9037 89.9966 19.9209 89.9966 17.4708C89.9966 15.0206 91.9793 13.0378 94.4295 13.0378C96.0875 13.0378 97.5291 13.953 98.2966 15.2912L102.533 12.9394C100.948 10.1154 97.8981 8.18181 94.4295 8.18181C89.2979 8.18181 85.1356 12.3441 85.1356 17.4757C85.1356 22.6072 89.2979 26.7696 94.4295 26.7696C97.9227 26.7696 100.948 24.8606 102.533 22.0119L98.2966 19.6503ZM56.5209 0.472168H61.8247V26.4153H56.5209V0.472168ZM104.614 0.472168V26.4153H109.918V18.6319L116.21 26.4153H123L114.995 17.1706L122.405 8.54589H115.91L109.913 15.7045V0.472168H104.614Z" fill="#A2BDAA"/>
<path d="M77.5833 19.6999C76.8158 20.9643 75.2315 21.904 73.4456 21.904C70.9905 21.904 69.0126 19.9213 69.0126 17.4711C69.0126 15.021 70.9954 13.0382 73.4456 13.0382C75.2315 13.0382 76.8158 14.0271 77.5833 15.3162V19.6999ZM77.5833 8.55117V10.6569C76.7174 9.19569 74.5624 8.17725 72.3041 8.17725C67.6449 8.17725 63.9795 12.2904 63.9795 17.4465C63.9795 22.6027 67.6449 26.765 72.3041 26.765C74.5575 26.765 76.7125 25.7515 77.5833 24.2853V26.3911H82.887V8.55117H77.5833Z" fill="#A2BDAA"/>
<path fill-rule="evenodd" clip-rule="evenodd" d="M6.56801 19.6751C6.56801 21.4857 5.10677 22.9469 3.29621 22.9469C1.48565 22.9469 0.0244141 21.4808 0.0244141 19.6751C0.0244141 17.8695 1.48565 16.4033 3.29621 16.4033H6.56801V19.6751ZM8.20145 19.6751C8.20145 17.8646 9.66269 16.4033 11.4733 16.4033C13.2838 16.4033 14.7451 17.8646 14.7451 19.6751V27.8522C14.7451 29.6627 13.2838 31.124 11.4733 31.124C9.66269 31.124 8.20145 29.6627 8.20145 27.8522V19.6751Z" fill="#A2BDAA"/>
<path fill-rule="evenodd" clip-rule="evenodd" d="M11.4734 6.5436C9.66288 6.5436 8.20164 5.08236 8.20164 3.2718C8.20164 1.46124 9.66288 0 11.4734 0C13.284 0 14.7452 1.46124 14.7452 3.2718V6.5436H11.4734ZM11.4734 8.20164C13.284 8.20164 14.7452 9.66288 14.7452 11.4734C14.7452 13.284 13.284 14.7452 11.4734 14.7452H3.2718C1.46124 14.7452 0 13.2791 0 11.4734C0 9.6678 1.46124 8.20164 3.2718 8.20164H11.4734Z" fill="#A2BDAA"/>
<path fill-rule="evenodd" clip-rule="evenodd" d="M24.5804 11.4734C24.5804 9.66288 26.0416 8.20164 27.8522 8.20164C29.6627 8.20164 31.124 9.66288 31.124 11.4734C31.124 13.284 29.6627 14.7452 27.8522 14.7452H24.5804V11.4734ZM22.9469 11.4734C22.9469 13.284 21.4857 14.7452 19.6751 14.7452C17.8646 14.7452 16.4033 13.284 16.4033 11.4734V3.2718C16.4033 1.46124 17.8646 0 19.6751 0C21.4857 0 22.9469 1.46124 22.9469 3.2718V11.4734Z" fill="#A2BDAA"/>
<path fill-rule="evenodd" clip-rule="evenodd" d="M19.6751 24.5804C21.4857 24.5804 22.9469 26.0416 22.9469 27.8522C22.9469 29.6627 21.4857 31.124 19.6751 31.124C17.8646 31.124 16.4033 29.6627 16.4033 27.8522V24.5804H19.6751ZM19.6751 22.9469C17.8646 22.9469 16.4033 21.4857 16.4033 19.6751C16.4033 17.8646 17.8646 16.4033 19.6751 16.4033H27.8767C29.6873 16.4033 31.1485 17.8646 31.1485 19.6751C31.1485 21.4857 29.6873 22.9469 27.8767 22.9469H19.6751Z" fill="#A2BDAA"/>
</g>
<defs>
<clipPath id="clip0_10456_363">
<rect width="123" height="31.1239" fill="white"/>
</clipPath>
</defs>
</svg>
