<svg width="105" height="33" viewBox="0 0 105 33" fill="none" xmlns="http://www.w3.org/2000/svg">
<path fill-rule="evenodd" clip-rule="evenodd" d="M13.2186 0.528809H14.1472C17.3713 0.595259 20.5426 1.82301 22.8203 3.9965C21.9793 4.80953 21.1209 5.58934 20.2974 6.40217C19.0183 5.30732 17.4763 4.46106 15.7942 4.16243C13.3063 3.66464 10.6254 4.11259 8.54043 5.45663C6.26264 6.86673 4.72065 9.25599 4.38773 11.811C4.01994 14.3329 4.77328 16.9876 6.50784 18.9453C8.17242 20.8534 10.7132 22.0479 13.3412 22.131C15.7942 22.2637 18.3525 21.5501 20.1397 19.9243C21.5413 18.7794 22.1896 17.0374 22.3999 15.3451C19.4914 15.3451 16.5829 15.3615 13.6741 15.3451V11.9273H25.9217C26.5524 15.5939 25.6414 19.7251 22.6977 22.3466C20.7353 24.2048 18.0196 25.2999 15.2512 25.5156C12.5703 25.7644 9.80192 25.2832 7.41908 24.0555C4.56297 22.6122 2.28518 20.1731 1.16383 17.3028C0.112656 14.6648 0.0951113 11.6783 1.07632 9.02361C1.96981 6.60133 3.68702 4.46106 5.89463 2.9679C8.01473 1.49115 10.5904 0.678125 13.2186 0.528809V0.528809Z" fill="#A2BDAA"/>
<path fill-rule="evenodd" clip-rule="evenodd" d="M83.48 1.3916H87.2296V25.0842C85.9854 25.0842 84.7239 25.1006 83.48 25.0676C83.4973 17.1867 83.48 9.28914 83.48 1.3916V1.3916Z" fill="#A2BDAA"/>
<path fill-rule="evenodd" clip-rule="evenodd" d="M34.2619 9.60428C36.5748 9.18936 39.0804 9.65392 40.9902 10.9647C42.7248 12.126 43.9339 13.9513 44.3019 15.9422C44.7749 18.2484 44.179 20.7702 42.6022 22.5954C40.9027 24.636 38.1168 25.731 35.4008 25.5651C32.9127 25.4324 30.4948 24.2545 29.023 22.3298C27.3586 20.2061 26.9555 17.2861 27.8665 14.7973C28.7778 12.126 31.3534 10.0855 34.2619 9.60428V9.60428ZM34.7876 12.7565C33.8415 12.9889 32.9653 13.5031 32.3346 14.2333C30.6349 16.1578 30.7402 19.2936 32.6149 21.0854C33.6838 22.1142 35.2958 22.5954 36.7851 22.3132C38.1692 22.081 39.3783 21.2017 40.0441 20.0402C41.2005 18.0659 40.8676 15.3449 39.098 13.8019C37.9591 12.8064 36.2945 12.3916 34.7876 12.7565Z" fill="#A2BDAA"/>
<path fill-rule="evenodd" clip-rule="evenodd" d="M52.835 9.60448C55.4808 9.1233 58.3718 9.82004 60.3518 11.5788C63.5759 14.3163 63.9261 19.4431 61.1753 22.5956C59.5107 24.5865 56.8125 25.6816 54.1491 25.5653C51.6086 25.499 49.103 24.3045 47.5961 22.33C45.8966 20.1565 45.5286 17.1702 46.4923 14.6316C47.4559 12.0434 49.9791 10.069 52.835 9.60448ZM53.3607 12.7567C52.4146 12.9891 51.5384 13.5033 50.9077 14.2169C49.2258 16.1083 49.2957 19.1943 51.1005 21.0027C52.1692 22.0812 53.8338 22.6122 55.3758 22.3134C56.7423 22.0646 57.9689 21.2019 58.6348 20.0404C59.7736 18.0494 59.4407 15.3285 57.6535 13.7855C56.5147 12.79 54.8501 12.3918 53.3607 12.7567V12.7567Z" fill="#A2BDAA"/>
<path fill-rule="evenodd" clip-rule="evenodd" d="M68.5868 10.5667C70.6019 9.3722 73.2825 9.04034 75.4553 10.0691C76.1386 10.3512 76.6992 10.8323 77.2425 11.3135L77.26 9.93643L80.7993 9.95285V24.5866C80.7817 26.7931 80.1861 29.1325 78.5039 30.742C76.6641 32.5172 73.8433 33.0648 71.3026 32.6997C68.5868 32.3182 66.2213 30.4434 65.1701 28.0707C66.2213 27.5895 67.3253 27.208 68.4116 26.7601C69.0248 28.1206 70.269 29.2819 71.8283 29.5475C73.3876 29.8129 75.1923 29.4478 76.2086 28.22C77.2949 26.9591 77.2949 25.2337 77.2425 23.6907C76.4365 24.4373 75.5077 25.1008 74.3863 25.3498C71.9509 25.9969 69.2702 25.2005 67.3953 23.6409C65.5031 22.0813 64.3817 19.6756 64.4868 17.2863C64.5394 14.5818 66.1514 11.977 68.5868 10.5667V10.5667ZM72.2138 12.6906C71.1449 12.8565 70.1461 13.4205 69.4628 14.2003C67.8159 16.0586 67.8159 19.0285 69.4803 20.8535C70.4266 21.932 71.9509 22.5292 73.4227 22.3799C74.807 22.2472 76.086 21.4176 76.7694 20.2729C77.9258 18.3316 77.7331 15.6935 76.1735 14.0012C75.2099 12.956 73.6681 12.4416 72.2138 12.6906V12.6906Z" fill="#A2BDAA"/>
<path fill-rule="evenodd" clip-rule="evenodd" d="M91.7323 11.413C93.8348 9.5548 97.0763 8.92431 99.7747 9.90327C102.333 10.8158 103.962 13.122 104.786 15.4946C100.984 16.9878 97.1989 18.4643 93.3969 19.9577C93.9226 20.9034 94.7285 21.7661 95.8148 22.1146C97.3392 22.6288 99.1613 22.4464 100.441 21.4841C100.949 21.119 101.352 20.6378 101.737 20.1733L104.628 21.9983C103.261 23.9396 100.966 25.3 98.4957 25.5158C95.7622 25.831 92.8536 24.8355 91.084 22.8113C88.1755 19.6258 88.4558 14.2833 91.7323 11.413V11.413ZM93.6072 14.4824C93.0113 15.2955 92.7661 16.2908 92.7837 17.2698C95.3242 16.2744 97.8647 15.2788 100.405 14.2669C99.9848 13.3377 98.9687 12.7735 97.9349 12.6242C96.2703 12.3422 94.5358 13.1882 93.6072 14.4824V14.4824Z" fill="#A2BDAA"/>
</svg>
