<svg width="30" height="30" viewBox="0 0 30 30" fill="none" xmlns="http://www.w3.org/2000/svg">
<g id="Iconly/Light-Outline/Show">
<g id="Show">
<path id="Fill 1" fill-rule="evenodd" clip-rule="evenodd" d="M14.9991 12.0516C13.3366 12.0516 11.9854 13.4041 11.9854 15.0666C11.9854 16.7279 13.3366 18.0791 14.9991 18.0791C16.6616 18.0791 18.0141 16.7279 18.0141 15.0666C18.0141 13.4041 16.6616 12.0516 14.9991 12.0516M14.9991 19.9541C12.3029 19.9541 10.1104 17.7616 10.1104 15.0666C10.1104 12.3704 12.3029 10.1766 14.9991 10.1766C17.6954 10.1766 19.8891 12.3704 19.8891 15.0666C19.8891 17.7616 17.6954 19.9541 14.9991 19.9541" fill="#A3B938"/>
<g id="Group 5">
<mask id="mask0_10456_342" style="mask-type:luminance" maskUnits="userSpaceOnUse" x="2" y="5" width="26" height="21">
<path id="Clip 4" fill-rule="evenodd" clip-rule="evenodd" d="M2.5 5.00024H27.4998V25.1315H2.5V5.00024Z" fill="white"/>
</mask>
<g mask="url(#mask0_10456_342)">
<path id="Fill 3" fill-rule="evenodd" clip-rule="evenodd" d="M4.46219 15.0656C6.78719 20.2018 10.7034 23.2556 14.9997 23.2568C19.2959 23.2556 23.2122 20.2018 25.5372 15.0656C23.2122 9.93057 19.2959 6.87682 14.9997 6.87557C10.7047 6.87682 6.78719 9.93057 4.46219 15.0656V15.0656ZM15.0022 25.1318H14.9972H14.9959C9.82594 25.1281 5.18344 21.5043 2.57594 15.4356C2.47469 15.1993 2.47469 14.9318 2.57594 14.6956C5.18344 8.62807 9.82719 5.00432 14.9959 5.00057C14.9984 4.99932 14.9984 4.99932 14.9997 5.00057C15.0022 4.99932 15.0022 4.99932 15.0034 5.00057C20.1734 5.00432 24.8159 8.62807 27.4234 14.6956C27.5259 14.9318 27.5259 15.1993 27.4234 15.4356C24.8172 21.5043 20.1734 25.1281 15.0034 25.1318H15.0022Z" fill="#A3B938"/>
</g>
</g>
</g>
</g>
</svg>
